<?xml version="1.0" encoding="UTF-8"?>
<svg width="84px" height="126px" viewBox="0 0 84 126" version="1.1" xmlns="http://www.w3.org/2000/svg" xmlns:xlink="http://www.w3.org/1999/xlink">
    <title>装机量备份 5</title>
    <g id="控件" stroke="none" stroke-width="1" fill="none" fill-rule="evenodd">
        <g id="应用程序图标" transform="translate(-1.000000, -6.000000)" fill="#FFFFFF" fill-opacity="0.302119755" stroke="#FFFFFF" stroke-width="3">
            <path d="M68.0186639,16.1059062 C68.4144827,15.9838394 68.8223068,16.0337659 69.1616929,16.2131638 C69.5010789,16.3925618 69.772027,16.7014311 69.8940938,17.09725 C69.9829113,17.3852533 69.9829113,17.6933329 69.8940938,17.9813361 L69.8940938,17.9813361 L58.6706747,54.3748516 C58.0371804,56.429046 56.429046,58.0371804 54.3748516,58.6706747 L54.3748516,58.6706747 L17.9813361,69.8940938 C17.5855173,70.0161606 17.1776932,69.9662341 16.8383071,69.7868362 C16.4989211,69.6074382 16.227973,69.2985689 16.1059062,68.90275 C16.0170887,68.6147467 16.0170887,68.3066671 16.1059062,68.0186639 L16.1059062,68.0186639 L27.3293253,31.6251484 C27.9628196,29.570954 29.570954,27.9628196 31.6251484,27.3293253 L31.6251484,27.3293253 Z" id="矩形备份-26" transform="translate(43.000000, 43.000000) rotate(-315.000000) translate(-43.000000, -43.000000) "></path>
            <path d="M68.0186639,33.1059062 C68.4144827,32.9838394 68.8223068,33.0337659 69.1616929,33.2131638 C69.5010789,33.3925618 69.772027,33.7014311 69.8940938,34.09725 C69.9829113,34.3852533 69.9829113,34.6933329 69.8940938,34.9813361 L69.8940938,34.9813361 L58.6706747,71.3748516 C58.0371804,73.429046 56.429046,75.0371804 54.3748516,75.6706747 L54.3748516,75.6706747 L17.9813361,86.8940938 C17.5855173,87.0161606 17.1776932,86.9662341 16.8383071,86.7868362 C16.4989211,86.6074382 16.227973,86.2985689 16.1059062,85.90275 C16.0170887,85.6147467 16.0170887,85.3066671 16.1059062,85.0186639 L16.1059062,85.0186639 L27.3293253,48.6251484 C27.9628196,46.570954 29.570954,44.9628196 31.6251484,44.3293253 L31.6251484,44.3293253 Z" id="矩形备份-27" transform="translate(43.000000, 60.000000) rotate(-315.000000) translate(-43.000000, -60.000000) "></path>
        </g>
        <text id="应用程序" font-family="PingFangSC-Regular, PingFang SC" font-size="20" font-weight="normal" line-spacing="28" fill="#FFFFFF">
            <tspan x="2" y="119">应用程序</tspan>
        </text>
    </g>
</svg>